<?xml version="1.0" standalone="no"?>
<!DOCTYPE svg PUBLIC "-//W3C//DTD SVG 20010904//EN"
 "http://www.w3.org/TR/2001/REC-SVG-20010904/DTD/svg10.dtd">
<svg version="1.0" xmlns="http://www.w3.org/2000/svg"
 width="338.000000pt" height="338.000000pt" viewBox="0 0 338.000000 338.000000"
 preserveAspectRatio="xMidYMid meet">
<metadata>
Created by potrace 1.11, written by Peter Selinger 2001-2013
</metadata>
<g transform="translate(0.000000,338.000000) scale(0.100000,-0.100000)"
fill="#000000" stroke="none">
<path d="M1530 2949 c-242 -31 -497 -125 -704 -259 l-96 -62 0 -78 c0 -195 39
-498 90 -709 24 -95 92 -308 125 -383 7 -17 -2 -18 -104 -18 l-111 0 0 -155 0
-155 198 0 198 0 74 -91 c73 -89 188 -194 281 -257 72 -49 231 -125 261 -125
36 0 179 70 274 134 89 60 223 185 296 276 l50 63 194 0 194 0 0 155 0 155
-105 0 c-58 0 -105 2 -105 4 0 2 18 51 40 110 105 280 171 647 170 950 l-1
131 -84 53 c-294 186 -596 274 -931 271 -77 -1 -168 -5 -204 -10z m378 -119
c231 -25 452 -101 656 -224 l68 -41 -6 -130 c-14 -307 -89 -648 -198 -910
l-34 -80 -651 -3 -650 -2 -41 97 c-104 252 -167 540 -192 873 -5 74 -10 138
-10 143 0 11 97 71 197 121 264 132 568 187 861 156z m-558 -1537 c0 -32 -4
-63 -8 -69 -12 -18 -42 -24 -63 -13 -26 14 -14 31 17 23 23 -6 24 -5 24 55 0
48 3 61 15 61 12 0 15 -13 15 -57z m71 30 c5 -16 12 -35 15 -43 3 -9 12 1 26
30 l20 45 20 -45 20 -45 15 43 c8 23 20 42 27 42 10 0 6 -20 -12 -72 l-26 -71
-20 41 c-11 23 -22 42 -25 42 -4 0 -14 -19 -24 -43 l-19 -42 -23 60 c-13 33
-24 66 -24 73 -1 23 19 12 30 -15z m309 7 c56 -56 -4 -145 -80 -119 -80 28
-61 139 25 139 22 0 43 -8 55 -20z m154 -2 c20 -28 20 -43 1 -62 -12 -12 -14
-20 -5 -36 9 -16 8 -20 -5 -20 -9 0 -18 7 -21 15 -4 8 -12 15 -20 15 -8 0 -14
-7 -14 -15 0 -8 -7 -15 -15 -15 -12 0 -15 14 -15 70 l0 70 39 0 c30 0 44 -6
55 -22z m86 -10 l0 -33 23 32 c12 18 28 33 35 33 17 0 15 -8 -8 -37 l-19 -25
24 -36 c30 -44 13 -59 -20 -18 -26 33 -35 33 -35 1 0 -16 -6 -25 -15 -25 -12
0 -15 14 -15 70 0 56 3 70 15 70 10 0 15 -10 15 -32z m192 17 c-2 -5 -12 -9
-22 -7 -30 5 -24 -21 10 -40 39 -22 42 -64 4 -78 -17 -7 -32 -7 -45 0 -29 16
-23 30 10 24 43 -9 47 13 7 37 -36 21 -42 33 -30 64 7 18 71 18 66 0z m28
-214 c0 -4 -42 -48 -92 -97 -96 -93 -189 -160 -294 -212 l-61 -31 -79 40
c-126 65 -255 164 -335 260 l-41 49 451 0 c248 0 451 -4 451 -9z"/>
<path d="M1340 2530 l0 -80 111 0 110 0 -3 -267 -3 -268 -30 -54 c-31 -57 -84
-102 -147 -128 l-38 -15 0 -85 0 -85 28 6 c50 13 152 65 197 102 58 47 101
113 125 192 18 59 20 94 20 413 l0 349 -185 0 -185 0 0 -80z"/>
<path d="M1770 2261 c0 -318 2 -355 19 -412 24 -74 76 -154 131 -198 42 -33
145 -85 193 -97 l27 -6 0 85 0 85 -37 15 c-64 26 -117 71 -148 128 l-30 54 -3
268 -3 267 110 0 111 0 0 80 0 80 -185 0 -185 0 0 -349z"/>
<path d="M1642 1318 c-7 -7 -12 -24 -12 -38 0 -31 17 -50 45 -50 28 0 45 19
45 50 0 31 -17 50 -45 50 -12 0 -26 -5 -33 -12z"/>
<path d="M1820 1299 c0 -26 3 -30 22 -27 26 3 37 36 16 49 -25 17 -38 9 -38
-22z"/>
<path d="M1925 440 c-27 -10 -78 -19 -112 -19 l-63 -1 0 -65 0 -65 66 0 c57 0
67 -3 71 -20 6 -24 1 -24 63 0 47 19 74 20 400 20 l350 0 0 65 0 65 -344 0
c-336 0 -345 1 -351 20 -8 24 -15 24 -80 0z m72 -36 c20 -20 24 -31 19 -57 -8
-39 -30 -57 -70 -57 -42 0 -66 26 -66 71 0 67 68 92 117 43z m128 -34 c1 -19
4 -41 8 -48 5 -6 4 -12 -2 -12 -6 0 -15 9 -21 20 -14 26 -28 25 -33 -2 -2 -13
-5 1 -6 30 -1 53 -1 53 27 50 24 -3 27 -7 27 -38z m129 24 c34 -34 11 -84 -39
-84 l-35 0 0 50 c0 49 1 50 29 50 16 0 37 -7 45 -16z m73 -61 c-2 -16 -4 -3
-4 27 0 30 2 43 4 28 2 -16 2 -40 0 -55z m94 40 l23 -38 7 40 c6 40 6 39 8
-12 0 -29 -3 -53 -8 -53 -5 0 -19 17 -32 38 l-23 37 -7 -40 c-6 -40 -6 -39 -8
13 0 28 3 52 8 52 5 0 19 -17 32 -37z m153 -3 c19 -49 20 -72 2 -47 -16 21
-30 22 -46 2 -7 -9 -15 -13 -17 -11 -7 7 28 96 37 96 4 0 15 -18 24 -40z"/>
<path d="M1905 390 c-41 -45 18 -110 70 -76 26 17 32 45 15 77 -14 25 -62 25
-85 -1z"/>
<path d="M2084 389 c-10 -17 13 -36 27 -22 12 12 4 33 -11 33 -5 0 -12 -5 -16
-11z"/>
<path d="M2200 359 c0 -36 2 -40 23 -37 39 5 31 78 -9 78 -10 0 -14 -13 -14
-41z"/>
<path d="M2545 377 c-4 -10 -5 -21 -1 -24 10 -10 18 4 13 24 -4 17 -4 17 -12
0z"/>
<path d="M790 355 c0 -67 7 -69 65 -17 11 10 15 8 20 -8 15 -46 90 -36 103 13
l9 32 7 -32 c10 -44 22 -49 40 -16 l14 28 7 -27 c4 -16 11 -28 15 -28 8 0 40
78 40 98 0 19 -18 14 -31 -10 l-11 -21 -13 23 c-12 22 -13 22 -23 4 -11 -19
-11 -19 -25 0 -14 19 -43 14 -31 -6 4 -5 -6 -2 -21 8 -26 17 -29 17 -57 1 -26
-15 -31 -15 -44 -2 -9 8 -26 15 -40 15 -22 0 -24 -3 -24 -55z m45 16 c3 -5 1
-12 -5 -16 -5 -3 -10 1 -10 9 0 18 6 21 15 7z m113 -14 c4 -20 -25 -34 -40
-19 -15 15 -1 44 19 40 10 -2 19 -11 21 -21z"/>
<path d="M1120 355 l0 -55 35 0 c32 0 35 2 35 30 0 23 -4 30 -20 30 -11 0 -20
5 -20 10 0 6 9 10 20 10 11 0 20 7 20 15 0 10 -11 15 -35 15 l-35 0 0 -55z"/>
<path d="M1200 355 c0 -42 3 -55 15 -55 8 0 15 5 15 12 0 9 3 9 12 0 22 -22
34 -12 36 33 2 47 -14 65 -57 65 -19 0 -21 -6 -21 -55z m50 10 c0 -8 -4 -15
-10 -15 -5 0 -10 7 -10 15 0 8 5 15 10 15 6 0 10 -7 10 -15z"/>
<path d="M1290 355 l0 -55 35 0 c32 0 35 2 35 30 0 23 -4 30 -20 30 -11 0 -20
5 -20 10 0 6 9 10 20 10 11 0 20 7 20 15 0 10 -11 15 -35 15 l-35 0 0 -55z"/>
<path d="M1370 355 c0 -52 1 -55 26 -55 41 0 64 18 64 50 0 33 -31 60 -67 60
-21 0 -23 -4 -23 -55z m58 -3 c2 -15 -2 -22 -12 -22 -11 0 -16 9 -16 26 0 31
23 28 28 -4z"/>
<path d="M1500 354 l0 -55 38 3 c33 3 37 6 39 33 0 17 2 34 2 39 2 19 30 -29
31 -51 0 -14 6 -23 15 -23 8 0 15 7 15 15 0 8 8 30 17 50 20 42 9 59 -16 26
l-19 -24 -6 21 c-8 23 -36 31 -36 10 0 -9 -3 -9 -12 0 -7 7 -25 12 -40 12 -27
0 -28 -1 -28 -56z"/>
</g>
</svg>
